<svg id="a6d5fb78-3bc1-4e67-b237-e840d10730a5" data-name="Layer 1" xmlns="http://www.w3.org/2000/svg" viewBox="0 0 481.88 539.26"><path d="M201.49,476.18c-9.07-20.89-21.49-35.26-37-42.76-1.94-.9-3.83-1.84-5.67-2.75s-3.86-1.92-5.85-2.85c-9.11-4.43-15.3-12.88-18.82-25.79-3-10.45-5.38-21.39-7.68-32q-.72-3.35-1.46-6.71a13.63,13.63,0,0,1-.32-2l0-.58v-.46l0-.59a15.7,15.7,0,0,1,.32-2.47c.65-3,1.28-5.92,1.92-8.9,2.17-10.14,4.41-20.62,7.2-30.31,3.54-13,9.73-21.43,18.93-25.9,1.9-.88,3.86-1.86,5.76-2.8s3.73-1.86,5.59-2.72c15.55-7.54,28-21.9,37-42.77,9.08,20.89,21.49,35.26,37,42.75,1.93.9,3.74,1.81,5.66,2.77s3.87,1.93,5.86,2.86c9,4.37,15.34,13.07,18.82,25.84,2.84,9.87,5.1,20.42,7.29,30.62.61,2.86,1.23,5.72,1.85,8.55a16,16,0,0,1,.32,2.48l0,.68v.44l0,.51a13.51,13.51,0,0,1-.32,2q-.82,3.75-1.63,7.5c-2.25,10.42-4.58,21.19-7.49,31.32-3.52,12.9-9.71,21.32-18.93,25.81-1.88.87-3.84,1.83-5.73,2.76s-3.73,1.83-5.62,2.71C223,441,210.55,455.33,201.49,476.18Z" transform="translate(-119.06 -90.37)"/><path d="M201.49,256.63c9,16.52,20.6,28.26,34.51,35l.08,0,.08,0c1.78.82,3.55,1.71,5.43,2.65s3.88,1.94,5.91,2.89c7.61,3.73,12.8,11,15.87,22.27l0,.07,0,.07c2.76,9.61,5,20.07,7.18,30.18.61,2.87,1.23,5.73,1.86,8.61a10.51,10.51,0,0,1,.19,1.57l0,.46v.1l0,.3a7.21,7.21,0,0,1-.2,1.25c-.55,2.49-1.09,5-1.63,7.51-2.23,10.32-4.54,21-7.4,31l0,.07,0,.07c-3,11.14-8.23,18.38-15.87,22.13-2,.93-3.94,1.88-5.83,2.81s-3.69,1.81-5.51,2.66l-.08,0-.08,0c-13.92,6.75-25.48,18.48-34.5,35-9-16.51-20.6-28.25-34.52-35l-.08,0-.08,0c-1.79-.83-3.57-1.72-5.46-2.65s-3.86-1.93-5.89-2.87c-7.61-3.73-12.8-11-15.86-22.22l0-.07,0-.07c-2.93-10.2-5.19-20.58-7.57-31.57-.49-2.23-1-4.47-1.47-6.74a8.4,8.4,0,0,1-.2-1.21l0-.32v-.09h0l0-.44a9.27,9.27,0,0,1,.2-1.61c.64-2.94,1.28-5.92,1.92-8.9,2.15-10,4.38-20.44,7.11-29.95l0-.07,0-.07c3.06-11.22,8.25-18.49,15.87-22.22,2-.94,4-1.92,5.88-2.86s3.67-1.82,5.46-2.66l.08,0,.08,0c13.91-6.75,25.48-18.48,34.51-35m0-25.19a1.94,1.94,0,0,0-1.73,1.46c-.54,1.47-1.1,3-1.53,4.1-8.65,22.06-20.58,37-36.15,44.51-3.84,1.78-7.6,3.77-11.44,5.56-9.81,4.77-17.64,13.9-21.87,29.4-3.65,12.72-6.32,26.43-9.21,39.54a22.15,22.15,0,0,0-.44,3.36h-.06c0,.44,0,.8,0,1.17s0,.79,0,1.23h.07a19.19,19.19,0,0,0,.43,2.78c2.89,13.11,5.56,26.24,9.21,39,4.23,15.5,12.06,24.64,21.87,29.4,3.84,1.79,7.6,3.78,11.44,5.57,15.57,7.55,27.5,22.45,36.15,44.51.43,1.11,1,2.63,1.53,4.11a2,2,0,0,0,1.73,1.46,1.92,1.92,0,0,0,1.7-1.43c.51-1.38,1-2.75,1.56-4.13,8.65-22.05,20.58-36.93,36.15-44.48,3.84-1.78,7.59-3.72,11.44-5.51,9.81-4.77,17.64-13.81,21.87-29.31,3.65-12.72,6.32-26,9.21-39.15a19.19,19.19,0,0,0,.43-2.78h.07c0-.44,0-.83,0-1.23s0-.73,0-1.17h-.06a22.15,22.15,0,0,0-.44-3.36c-2.89-13.11-5.56-26.72-9.21-39.44-4.23-15.5-12.06-24.68-21.87-29.45-3.85-1.79-7.6-3.8-11.44-5.59C225.33,274,213.4,259.07,204.75,237c-.53-1.38-1.05-2.75-1.56-4.13a1.91,1.91,0,0,0-1.7-1.44Z" transform="translate(-119.06 -90.37)" fill="#fff"/><path d="M360,476.17c-9.07-20.88-21.49-35.25-37-42.75-1.94-.9-3.83-1.84-5.67-2.75s-3.86-1.92-5.85-2.85c-9.11-4.43-15.3-12.88-18.82-25.79-3-10.45-5.38-21.4-7.68-32q-.72-3.35-1.46-6.7a13.63,13.63,0,0,1-.32-2l0-.58v-.46l0-.59a15.7,15.7,0,0,1,.32-2.47c.65-3,1.28-5.91,1.92-8.89,2.17-10.14,4.41-20.62,7.2-30.32,3.54-13,9.73-21.43,18.93-25.9,1.9-.88,3.86-1.86,5.76-2.8s3.73-1.86,5.59-2.72c15.55-7.54,28-21.9,37-42.77,9.08,20.89,21.49,35.26,37,42.75,1.93.9,3.74,1.81,5.65,2.76s3.87,1.94,5.87,2.87c9,4.37,15.34,13.07,18.82,25.84,2.84,9.87,5.1,20.42,7.29,30.62.62,2.87,1.23,5.72,1.85,8.55a16,16,0,0,1,.32,2.48l0,.68v.44l-.05.51a12.39,12.39,0,0,1-.31,2q-.82,3.75-1.63,7.5c-2.25,10.41-4.58,21.19-7.49,31.32-3.52,12.9-9.71,21.32-18.93,25.81-1.89.87-3.85,1.84-5.74,2.77s-3.73,1.82-5.61,2.7C381.49,441,369.07,455.33,360,476.17Z" transform="translate(-119.06 -90.37)"/><path d="M360,256.63c9,16.52,20.6,28.26,34.51,35l.08,0,.08,0c1.78.82,3.55,1.71,5.43,2.65s3.88,1.94,5.91,2.89c7.61,3.73,12.8,11,15.87,22.27l0,.07,0,.07c2.76,9.61,5,20.07,7.18,30.18.61,2.87,1.23,5.73,1.86,8.61a10.51,10.51,0,0,1,.19,1.57l0,.46v.08h0l0,.31a8.53,8.53,0,0,1-.21,1.25c-.55,2.49-1.09,5-1.63,7.51-2.23,10.32-4.54,21-7.4,31l0,.07,0,.07c-3,11.14-8.23,18.38-15.86,22.13-2,.92-3.95,1.88-5.84,2.81s-3.69,1.81-5.51,2.66l-.08,0-.08,0c-13.92,6.75-25.48,18.48-34.5,35-9-16.51-20.6-28.25-34.52-35l-.08,0-.08,0c-1.79-.83-3.57-1.72-5.46-2.65s-3.86-1.93-5.89-2.87c-7.61-3.73-12.8-11-15.86-22.22l0-.07,0-.07c-2.93-10.2-5.19-20.58-7.57-31.57-.49-2.23-1-4.47-1.47-6.74a8.4,8.4,0,0,1-.2-1.21l0-.32v-.1l0-.44a10.36,10.36,0,0,1,.2-1.61c.64-2.94,1.28-5.92,1.92-8.9,2.15-10,4.38-20.44,7.11-29.95l0-.07,0-.07c3.06-11.22,8.25-18.49,15.87-22.22,2-.94,4-1.92,5.88-2.86s3.67-1.82,5.46-2.66l.08,0,.08,0c13.91-6.75,25.48-18.48,34.51-35m0-25.19a1.94,1.94,0,0,0-1.73,1.46c-.54,1.47-1.1,3-1.53,4.1-8.65,22.06-20.58,37-36.15,44.51-3.84,1.78-7.6,3.77-11.44,5.56-9.81,4.77-17.64,13.9-21.87,29.4-3.65,12.72-6.32,26.43-9.21,39.54a22.15,22.15,0,0,0-.44,3.36h-.06c0,.44,0,.8,0,1.17s0,.79,0,1.23h.07a19.19,19.19,0,0,0,.43,2.78c2.89,13.11,5.56,26.24,9.21,39,4.23,15.5,12.06,24.64,21.87,29.4,3.84,1.79,7.6,3.78,11.44,5.57,15.57,7.55,27.5,22.45,36.15,44.51.43,1.11,1,2.63,1.53,4.11a2,2,0,0,0,1.73,1.46,1.92,1.92,0,0,0,1.7-1.43c.51-1.38,1-2.75,1.56-4.13,8.65-22.05,20.58-36.93,36.15-44.48,3.84-1.78,7.6-3.72,11.44-5.51,9.81-4.77,17.64-13.81,21.87-29.31,3.65-12.72,6.32-26,9.21-39.15a19.19,19.19,0,0,0,.43-2.78h.07c0-.44,0-.83,0-1.23s0-.73,0-1.17h-.06a22.15,22.15,0,0,0-.44-3.36c-2.89-13.11-5.56-26.72-9.21-39.44-4.23-15.5-12.06-24.68-21.87-29.45-3.84-1.79-7.6-3.8-11.44-5.59-15.57-7.55-27.5-22.46-36.15-44.52-.53-1.38-1.05-2.75-1.56-4.13a1.91,1.91,0,0,0-1.7-1.44Z" transform="translate(-119.06 -90.37)" fill="#fff"/><path d="M518.51,476.18c-9.07-20.89-21.49-35.26-37-42.76-1.94-.9-3.84-1.84-5.67-2.76s-3.86-1.92-5.85-2.84c-9.11-4.43-15.3-12.88-18.82-25.79-3-10.45-5.38-21.4-7.68-32q-.72-3.35-1.46-6.7a14.06,14.06,0,0,1-.32-2l0-.58v-.47l0-.58a15.4,15.4,0,0,1,.32-2.46c.65-3,1.28-5.92,1.92-8.9,2.17-10.14,4.41-20.62,7.2-30.32,3.54-13,9.73-21.43,18.93-25.9,1.9-.88,3.86-1.86,5.75-2.8s3.74-1.86,5.6-2.72c15.55-7.54,28-21.9,37-42.77,9.07,20.89,21.49,35.26,37,42.75,1.93.9,3.74,1.81,5.66,2.77s3.87,1.93,5.86,2.86c9,4.37,15.34,13.07,18.82,25.84,2.84,9.87,5.1,20.42,7.29,30.62.61,2.86,1.23,5.72,1.85,8.55a16,16,0,0,1,.32,2.48l0,.66v.45l0,.53a12,12,0,0,1-.31,2q-.83,3.76-1.63,7.51c-2.25,10.42-4.58,21.19-7.49,31.32-3.52,12.9-9.71,21.32-18.93,25.81-1.88.87-3.84,1.83-5.73,2.76s-3.73,1.83-5.62,2.71C540,441,527.58,455.33,518.51,476.18Z" transform="translate(-119.06 -90.37)"/><path d="M518.51,256.63c9,16.52,20.6,28.26,34.51,35l.08,0,.08,0c1.78.82,3.55,1.71,5.43,2.65s3.88,1.94,5.91,2.89c7.61,3.73,12.8,11,15.87,22.27l0,.07,0,.07c2.76,9.61,5,20.07,7.18,30.18.61,2.87,1.23,5.73,1.86,8.61a9.33,9.33,0,0,1,.19,1.57l0,.46v.1l0,.3a8.53,8.53,0,0,1-.21,1.25c-.55,2.49-1.09,5-1.63,7.5-2.23,10.33-4.54,21-7.4,31l0,.07,0,.07c-3,11.14-8.23,18.38-15.87,22.13-2,.93-3.94,1.88-5.83,2.81s-3.69,1.81-5.51,2.66l-.08,0-.08,0c-13.92,6.75-25.48,18.48-34.5,35-9-16.51-20.6-28.25-34.52-35l-.08,0-.08,0c-1.79-.83-3.57-1.72-5.46-2.65s-3.86-1.93-5.89-2.87c-7.61-3.73-12.8-11-15.86-22.22l0-.07,0-.07c-2.93-10.2-5.19-20.58-7.57-31.57-.49-2.23-1-4.47-1.47-6.74a8.24,8.24,0,0,1-.19-1.21l0-.32v-.09h0l0-.44a10.36,10.36,0,0,1,.2-1.61c.64-2.94,1.28-5.92,1.92-8.9,2.15-10,4.38-20.44,7.11-29.95l0-.07,0-.07c3.06-11.22,8.25-18.49,15.87-22.22,2-.94,4-1.92,5.88-2.86s3.67-1.82,5.46-2.66l.08,0,.08,0c13.91-6.75,25.48-18.48,34.51-35m0-25.19a1.94,1.94,0,0,0-1.73,1.46c-.54,1.47-1.1,3-1.53,4.1-8.65,22.06-20.58,37-36.15,44.51-3.84,1.78-7.59,3.77-11.44,5.56-9.81,4.77-17.64,13.9-21.87,29.4-3.65,12.72-6.32,26.43-9.21,39.54a22.15,22.15,0,0,0-.44,3.36h-.06c0,.44,0,.8,0,1.17s0,.79,0,1.23h.07a19.19,19.19,0,0,0,.43,2.78c2.89,13.11,5.56,26.24,9.21,39,4.23,15.5,12.06,24.64,21.87,29.4,3.85,1.79,7.6,3.78,11.44,5.57,15.57,7.55,27.5,22.45,36.15,44.51.43,1.11,1,2.63,1.53,4.11a2,2,0,0,0,1.73,1.46,1.92,1.92,0,0,0,1.7-1.43c.51-1.38,1-2.75,1.56-4.13,8.65-22.05,20.58-36.93,36.15-44.48,3.84-1.78,7.6-3.72,11.44-5.51,9.81-4.77,17.64-13.81,21.87-29.31,3.65-12.72,6.32-26,9.21-39.15a19.19,19.19,0,0,0,.43-2.78h.07c0-.44,0-.83,0-1.23s0-.73,0-1.17h-.06a22.15,22.15,0,0,0-.44-3.36c-2.89-13.11-5.56-26.72-9.21-39.44-4.23-15.5-12.06-24.68-21.87-29.45-3.84-1.79-7.6-3.8-11.44-5.59-15.57-7.55-27.5-22.46-36.15-44.52-.53-1.38-1-2.75-1.56-4.13a1.91,1.91,0,0,0-1.7-1.44Z" transform="translate(-119.06 -90.37)" fill="#fff"/><ellipse cx="82.43" cy="76.81" rx="49.32" ry="71.2" stroke="#fff" stroke-miterlimit="10" stroke-width="11.24"/><ellipse cx="240.94" cy="76.81" rx="49.32" ry="71.2" stroke="#fff" stroke-miterlimit="10" stroke-width="11.24"/><ellipse cx="399.45" cy="76.81" rx="49.32" ry="71.2" stroke="#fff" stroke-miterlimit="10" stroke-width="11.24"/><ellipse cx="82.43" cy="462.45" rx="49.32" ry="71.2" stroke="#fff" stroke-miterlimit="10" stroke-width="11.24"/><ellipse cx="240.94" cy="462.45" rx="49.32" ry="71.2" stroke="#fff" stroke-miterlimit="10" stroke-width="11.24"/><ellipse cx="399.45" cy="462.45" rx="49.32" ry="71.2" stroke="#fff" stroke-miterlimit="10" stroke-width="11.24"/></svg>