<svg id="a2d674ce-d32c-4968-81d7-9e69a3c2aec8" data-name="Layer 1" xmlns="http://www.w3.org/2000/svg" viewBox="0 0 730.24 730.24"><rect x="5.62" y="5.62" width="719" height="719" stroke="#000" stroke-miterlimit="10" stroke-width="11.24"/><path d="M241.79,442.55C235,428.24,226,418.3,214.91,412.92c-1.47-.68-2.84-1.37-4.21-2.05s-2.91-1.44-4.38-2.13c-6.36-3.09-10.72-9.08-13.22-18.26-2.23-7.75-4-15.88-5.7-23.75q-.54-2.48-1.09-5a8.8,8.8,0,0,1-.2-1.3l0-.36v-.26l0-.39a9.4,9.4,0,0,1,.2-1.61q.72-3.3,1.43-6.62c1.61-7.52,3.28-15.3,5.34-22.47,2.52-9.25,6.88-15.24,13.33-18.38,1.38-.64,2.84-1.37,4.3-2.09s2.74-1.36,4.12-2c11.17-5.41,20.19-15.36,26.95-29.64,6.77,14.3,15.79,24.25,26.88,29.62,1.43.67,2.77,1.34,4.18,2.05s2.91,1.45,4.41,2.15c6.36,3.09,10.71,9.09,13.23,18.3,2.1,7.31,3.78,15.14,5.4,22.71.46,2.13.91,4.26,1.38,6.36a11,11,0,0,1,.21,1.63l0,.43v.25l0,.33a8.69,8.69,0,0,1-.2,1.29c-.41,1.87-.81,3.72-1.21,5.58-1.67,7.73-3.4,15.73-5.55,23.22-2.52,9.2-6.87,15.16-13.33,18.31-1.38.64-2.83,1.35-4.28,2.06s-2.76,1.35-4.15,2C257.57,418.33,248.54,428.27,241.79,442.55Z" transform="translate(6.12 5.12)" fill="#cfcfce"/><path d="M241.78,288.37c6.61,10.58,14.79,18.26,24.43,22.94l.08,0,.08,0c1.29.6,2.59,1.25,4,1.94s2.9,1.46,4.44,2.17c4.86,2.4,8.22,7.22,10.28,14.74l0,.07,0,.07c2,7.06,3.68,14.79,5.29,22.27.46,2.14.91,4.27,1.39,6.43a5.34,5.34,0,0,1,.08.71V360a3,3,0,0,1-.09.54c-.41,1.86-.81,3.72-1.22,5.59-1.65,7.64-3.35,15.54-5.45,22.85l0,.07,0,.07c-2,7.43-5.39,12.22-10.28,14.63-1.5.7-2.95,1.41-4.36,2.1s-2.72,1.34-4.05,1.95l-.08,0-.08,0c-9.64,4.67-17.81,12.35-24.42,22.91-6.61-10.58-14.78-18.27-24.43-22.94l-.08,0-.08,0c-1.3-.6-2.61-1.25-4-1.94s-2.89-1.44-4.42-2.15c-4.87-2.4-8.23-7.21-10.27-14.7l0-.07,0-.07c-2.16-7.5-3.83-15.18-5.59-23.31-.36-1.66-.72-3.33-1.1-5a2.81,2.81,0,0,1-.08-.5v-.24a4.83,4.83,0,0,1,.09-.75q.72-3.3,1.44-6.64c1.59-7.43,3.23-15.11,5.24-22.09l0-.07,0-.07c2-7.49,5.4-12.3,10.27-14.7,1.53-.71,3-1.44,4.42-2.15s2.69-1.34,4-1.94l.08,0,.08,0c9.64-4.67,17.81-12.35,24.42-22.92m0-24.44A1.43,1.43,0,0,0,240.5,265c-.4,1.09-.82,2.22-1.14,3.05-6.44,16.41-15.31,27.49-26.9,33.11-2.86,1.33-5.65,2.81-8.51,4.14-7.3,3.55-13.13,10.35-16.27,21.88-2.72,9.46-4.71,19.66-6.85,29.42a14.6,14.6,0,0,0-.33,2.49h-.05c0,.33,0,.6,0,.87s0,.6,0,.92h.06a13.75,13.75,0,0,0,.32,2.07c2.14,9.76,4.13,19.53,6.85,29,3.14,11.53,9,18.33,16.27,21.88,2.86,1.33,5.65,2.81,8.51,4.14,11.59,5.62,20.46,16.7,26.9,33.11.32.83.74,2,1.14,3.06a1.43,1.43,0,0,0,1.28,1.09,1.41,1.41,0,0,0,1.27-1.07c.38-1,.76-2,1.16-3.06,6.44-16.41,15.31-27.48,26.9-33.1,2.86-1.33,5.65-2.77,8.51-4.1,7.3-3.55,13.13-10.28,16.27-21.81,2.72-9.46,4.71-19.37,6.85-29.13a13.75,13.75,0,0,0,.32-2.07h.06c0-.32,0-.62,0-.92s0-.54,0-.87h-.05a14.6,14.6,0,0,0-.33-2.49c-2.14-9.76-4.13-19.89-6.85-29.35-3.14-11.53-9-18.37-16.27-21.91-2.86-1.34-5.65-2.83-8.51-4.16-11.59-5.62-20.46-16.72-26.9-33.13-.4-1-.78-2.05-1.16-3.07a1.41,1.41,0,0,0-1.27-1.07Z" transform="translate(6.12 5.12)"/><path d="M359.73,442.54C353,428.24,344,418.3,332.85,412.92c-1.47-.68-2.84-1.37-4.21-2.05s-2.91-1.44-4.38-2.13c-6.36-3.09-10.72-9.08-13.22-18.26-2.23-7.75-4-15.87-5.7-23.72l-1.08-5a7.75,7.75,0,0,1-.21-1.3l0-.36v-.25l0-.41a9.4,9.4,0,0,1,.2-1.6c.49-2.21,1-4.42,1.44-6.64,1.6-7.51,3.27-15.29,5.33-22.45,2.52-9.25,6.88-15.24,13.33-18.38,1.38-.64,2.84-1.37,4.3-2.09s2.74-1.36,4.12-2c11.17-5.41,20.2-15.36,27-29.64,6.76,14.3,15.78,24.25,26.87,29.62,1.44.67,2.77,1.34,4.18,2.05s2.91,1.45,4.41,2.15c6.36,3.09,10.71,9.09,13.23,18.3,2.1,7.31,3.78,15.14,5.4,22.71.46,2.13.92,4.26,1.38,6.36a11,11,0,0,1,.21,1.63l0,.46v.22l0,.33a7.4,7.4,0,0,1-.2,1.29c-.41,1.87-.81,3.72-1.21,5.58-1.67,7.73-3.4,15.73-5.55,23.22-2.51,9.2-6.87,15.16-13.33,18.31-1.38.64-2.83,1.35-4.29,2.06s-2.75,1.35-4.14,2C375.51,418.33,366.49,428.27,359.73,442.54Z" transform="translate(6.12 5.12)" fill="#cfcfce"/><path d="M359.72,288.37c6.62,10.58,14.79,18.26,24.43,22.94l.08,0,.08,0c1.29.6,2.59,1.25,4,1.94s2.9,1.46,4.44,2.17c4.86,2.4,8.22,7.22,10.28,14.74l0,.07,0,.07c2,7.06,3.68,14.79,5.29,22.26.46,2.14.92,4.28,1.39,6.44a5.34,5.34,0,0,1,.08.71V360a2.24,2.24,0,0,1-.09.54c-.41,1.86-.81,3.73-1.22,5.6-1.65,7.63-3.35,15.53-5.45,22.84l0,.07,0,.07c-2,7.44-5.39,12.22-10.28,14.63-1.5.7-3,1.41-4.36,2.1s-2.72,1.34-4.05,1.95l-.08,0-.08,0c-9.64,4.67-17.81,12.35-24.42,22.91-6.61-10.58-14.78-18.27-24.42-22.94l-.09,0-.08,0c-1.3-.6-2.6-1.25-4-1.94s-2.89-1.44-4.42-2.15c-4.87-2.4-8.23-7.21-10.27-14.7l0-.07,0-.07c-2.16-7.5-3.82-15.18-5.59-23.3-.36-1.67-.72-3.34-1.1-5a2.81,2.81,0,0,1-.08-.5V360l0-.18a4.2,4.2,0,0,1,.08-.75c.48-2.2,1-4.42,1.44-6.64,1.59-7.43,3.23-15.11,5.24-22.09l0-.07,0-.07c2-7.49,5.4-12.3,10.27-14.7,1.53-.71,3-1.44,4.42-2.15s2.69-1.34,4-1.94l.08,0,.09,0c9.63-4.67,17.8-12.35,24.41-22.92m0-24.44a1.43,1.43,0,0,0-1.28,1.09c-.4,1.09-.82,2.22-1.14,3.05-6.44,16.41-15.31,27.49-26.9,33.11-2.86,1.33-5.65,2.81-8.51,4.14-7.29,3.55-13.12,10.35-16.27,21.88-2.72,9.46-4.71,19.66-6.85,29.42a15.68,15.68,0,0,0-.33,2.49h0c0,.33,0,.6,0,.87s0,.6,0,.92h.05a13.75,13.75,0,0,0,.32,2.07c2.14,9.76,4.13,19.53,6.85,29,3.15,11.53,9,18.33,16.27,21.88,2.86,1.33,5.65,2.81,8.51,4.14,11.59,5.62,20.46,16.7,26.9,33.11.32.83.74,2,1.14,3.06a1.45,1.45,0,0,0,1.29,1.09,1.41,1.41,0,0,0,1.26-1.07c.38-1,.77-2,1.16-3.06,6.44-16.41,15.31-27.48,26.9-33.1,2.86-1.33,5.65-2.77,8.51-4.1,7.3-3.55,13.13-10.28,16.28-21.81,2.71-9.46,4.7-19.37,6.84-29.13a12.59,12.59,0,0,0,.32-2.07h.06c0-.32,0-.62,0-.92s0-.54,0-.87H421a14.6,14.6,0,0,0-.33-2.49c-2.14-9.76-4.13-19.89-6.84-29.35-3.15-11.53-9-18.37-16.28-21.91-2.86-1.34-5.65-2.83-8.51-4.16-11.59-5.62-20.46-16.72-26.9-33.13-.39-1-.78-2.05-1.16-3.07a1.41,1.41,0,0,0-1.27-1.07Z" transform="translate(6.12 5.12)"/><path d="M477.67,442.55c-6.77-14.31-15.78-24.25-26.87-29.63-1.48-.68-2.85-1.37-4.22-2.05s-2.91-1.44-4.38-2.13c-6.36-3.09-10.72-9.08-13.22-18.26-2.23-7.74-4-15.86-5.69-23.7-.36-1.67-.73-3.35-1.09-5a7.75,7.75,0,0,1-.21-1.3l0-.36v-.26l0-.39a10.52,10.52,0,0,1,.2-1.61c.49-2.21,1-4.43,1.44-6.65,1.61-7.52,3.27-15.28,5.33-22.44,2.52-9.25,6.88-15.24,13.33-18.38,1.38-.64,2.84-1.37,4.3-2.09s2.74-1.36,4.12-2c11.17-5.41,20.2-15.36,27-29.64,6.76,14.3,15.78,24.25,26.87,29.62,1.44.67,2.77,1.34,4.19,2.05s2.9,1.45,4.41,2.15c6.35,3.09,10.7,9.09,13.22,18.3,2.1,7.31,3.77,15.12,5.4,22.68.46,2.14.91,4.28,1.38,6.39a11,11,0,0,1,.21,1.63l0,.46a1.7,1.7,0,0,0,0,.22l0,.33a7.4,7.4,0,0,1-.2,1.29l-1.22,5.62c-1.67,7.71-3.39,15.7-5.54,23.18-2.51,9.2-6.87,15.16-13.33,18.31-1.38.64-2.83,1.35-4.28,2.06s-2.75,1.35-4.15,2C493.45,418.33,484.43,428.27,477.67,442.55Z" transform="translate(6.12 5.12)" fill="#cfcfce"/><path d="M477.66,288.37c6.62,10.58,14.79,18.26,24.43,22.94l.08,0,.08,0c1.29.6,2.59,1.25,4,1.94s2.91,1.46,4.44,2.17c4.86,2.4,8.23,7.22,10.28,14.74l0,.07,0,.07c2,7.06,3.68,14.79,5.29,22.26.46,2.15.92,4.28,1.39,6.44a5.34,5.34,0,0,1,.08.71V360a2.24,2.24,0,0,1-.09.54c-.41,1.86-.81,3.73-1.21,5.59-1.66,7.64-3.36,15.54-5.46,22.85l0,.07,0,.07c-2,7.44-5.39,12.22-10.28,14.63-1.5.7-3,1.41-4.36,2.1s-2.72,1.34-4.05,1.95l-.08,0-.08,0c-9.64,4.67-17.81,12.35-24.42,22.91-6.61-10.58-14.78-18.27-24.42-22.94l-.09,0-.08,0c-1.29-.6-2.6-1.25-4-1.94s-2.89-1.44-4.42-2.15c-4.87-2.4-8.23-7.21-10.27-14.7l0-.07,0-.07c-2.16-7.5-3.82-15.18-5.59-23.3-.36-1.67-.72-3.34-1.09-5a3.31,3.31,0,0,1-.09-.5v-.24a4.2,4.2,0,0,1,.08-.75c.49-2.2,1-4.42,1.44-6.64,1.59-7.43,3.23-15.11,5.24-22.09l0-.07,0-.07c2-7.49,5.4-12.3,10.27-14.7,1.53-.71,3-1.44,4.42-2.15s2.69-1.34,4-1.94l.08,0,.09,0c9.63-4.67,17.81-12.35,24.41-22.92m0-24.44a1.44,1.44,0,0,0-1.28,1.09c-.4,1.09-.82,2.22-1.14,3.05-6.44,16.41-15.31,27.49-26.89,33.11-2.87,1.33-5.66,2.81-8.52,4.14-7.29,3.55-13.12,10.35-16.27,21.88-2.72,9.46-4.7,19.66-6.85,29.42a15.68,15.68,0,0,0-.33,2.49h0c0,.33,0,.6,0,.87s0,.6,0,.92h.05a13.75,13.75,0,0,0,.32,2.07c2.15,9.76,4.13,19.53,6.85,29,3.15,11.53,9,18.33,16.27,21.88,2.86,1.33,5.65,2.81,8.52,4.14,11.58,5.62,20.45,16.7,26.89,33.11.32.83.74,2,1.14,3.06a1.45,1.45,0,0,0,1.29,1.09,1.41,1.41,0,0,0,1.26-1.07c.38-1,.77-2,1.16-3.06,6.44-16.41,15.31-27.48,26.9-33.1,2.86-1.33,5.65-2.77,8.51-4.1,7.3-3.55,13.13-10.28,16.28-21.81,2.71-9.46,4.7-19.37,6.85-29.13a15.16,15.16,0,0,0,.32-2.07h0c0-.32,0-.62,0-.92s0-.54,0-.87h0a15.74,15.74,0,0,0-.32-2.49c-2.15-9.76-4.14-19.89-6.85-29.35-3.15-11.53-9-18.37-16.28-21.91-2.86-1.34-5.65-2.83-8.51-4.16-11.59-5.62-20.46-16.72-26.9-33.13-.39-1-.78-2.05-1.16-3.07a1.41,1.41,0,0,0-1.27-1.07Z" transform="translate(6.12 5.12)"/><ellipse cx="247.9" cy="221.23" rx="36.69" ry="52.97" fill="#cfcfce" stroke="#000" stroke-miterlimit="10" stroke-width="11.24"/><ellipse cx="365.84" cy="221.23" rx="36.69" ry="52.97" fill="#cfcfce" stroke="#000" stroke-miterlimit="10" stroke-width="11.24"/><ellipse cx="483.79" cy="221.23" rx="36.69" ry="52.97" fill="#cfcfce" stroke="#000" stroke-miterlimit="10" stroke-width="11.24"/><ellipse cx="247.9" cy="508.17" rx="36.69" ry="52.97" fill="#cfcfce" stroke="#000" stroke-miterlimit="10" stroke-width="11.24"/><ellipse cx="365.84" cy="508.17" rx="36.69" ry="52.97" fill="#cfcfce" stroke="#000" stroke-miterlimit="10" stroke-width="11.24"/><ellipse cx="483.79" cy="508.17" rx="36.69" ry="52.97" fill="#cfcfce" stroke="#000" stroke-miterlimit="10" stroke-width="11.24"/></svg>