<?xml version="1.0" encoding="utf-8"?>
<!-- Generator: Adobe Illustrator 25.2.2, SVG Export Plug-In . SVG Version: 6.00 Build 0)  -->
<svg version="1.1" baseProfile="basic" id="ba45614f-bd56-4f83-a5cd-f90d25933bde"
	 xmlns="http://www.w3.org/2000/svg" xmlns:xlink="http://www.w3.org/1999/xlink" x="0px" y="0px" viewBox="0 0 720 720"
	 xml:space="preserve">
<style type="text/css">
	.st0{fill:#908A88;}
	.st1{fill:#FFFFFF;}
	.st2{fill:#908A88;stroke:#FFFFFF;stroke-width:11.24;stroke-miterlimit:10;}
	.st3{fill:none;stroke:#908A88;stroke-width:16;stroke-miterlimit:10;}
</style>
<g>
	<path class="st0" d="M239.21,444.97c-6.95-14.66-16.17-24.84-27.53-30.35c-1.51-0.7-2.91-1.4-4.31-2.1
		c-1.4-0.7-2.98-1.47-4.49-2.18c-6.51-3.16-10.98-9.3-13.54-18.7c-2.28-7.94-4.1-16.26-5.84-24.32c-0.37-1.69-0.74-3.4-1.12-5.12
		c-0.1-0.44-0.17-0.88-0.2-1.33v-0.37v-0.27v-0.4c0.02-0.55,0.09-1.11,0.2-1.65c0.49-2.25,0.98-4.51,1.46-6.78
		c1.65-7.7,3.36-15.67,5.47-23.01c2.58-9.47,7.05-15.61,13.65-18.82c1.41-0.66,2.91-1.4,4.4-2.14c1.5-0.74,2.81-1.39,4.22-2.05
		c11.44-5.54,20.68-15.73,27.6-30.36c6.93,14.65,16.17,24.84,27.53,30.34c1.46,0.69,2.84,1.37,4.28,2.1
		c1.44,0.73,2.98,1.49,4.52,2.2c6.51,3.16,10.97,9.31,13.55,18.74c2.15,7.49,3.87,15.51,5.53,23.26c0.47,2.18,0.93,4.36,1.41,6.51
		c0.11,0.55,0.19,1.11,0.22,1.67v0.44v0.26v0.34c-0.04,0.44-0.1,0.89-0.2,1.32c-0.42,1.92-0.83,3.81-1.24,5.71
		c-1.71,7.92-3.48,16.11-5.68,23.78c-2.58,9.42-7.04,15.53-13.65,18.75c-1.41,0.66-2.9,1.38-4.38,2.11
		c-1.49,0.73-2.83,1.38-4.25,2.05C255.37,420.16,246.12,430.34,239.21,444.97z"/>
	<path class="st1" d="M239.2,287.06c6.77,10.84,15.15,18.7,25.02,23.49h0.08h0.08c1.32,0.61,2.65,1.28,4.1,1.99
		c1.44,0.71,2.97,1.5,4.55,2.22c4.98,2.46,8.42,7.39,10.53,15.1v0.07v0.07c2.05,7.23,3.77,15.15,5.42,22.81
		c0.47,2.19,0.93,4.37,1.42,6.59c0.04,0.24,0.07,0.48,0.08,0.73v0.3c-0.01,0.19-0.04,0.37-0.09,0.55c-0.42,1.9-0.83,3.81-1.25,5.73
		c-1.69,7.82-3.43,15.92-5.58,23.4v0.07v0.07c-2.05,7.61-5.52,12.52-10.53,14.98c-1.54,0.72-3.02,1.44-4.47,2.15
		c-1.44,0.71-2.79,1.37-4.15,2h-0.08h-0.08c-9.87,4.78-18.24,12.65-25.01,23.46c-6.77-10.84-15.14-18.71-25.02-23.49h-0.08h-0.08
		c-1.33-0.61-2.67-1.28-4.1-1.99c-1.42-0.71-2.96-1.47-4.53-2.2c-4.99-2.46-8.43-7.38-10.52-15.06v-0.07v-0.07
		c-2.21-7.68-3.92-15.55-5.73-23.87c-0.37-1.7-0.74-3.41-1.13-5.12c-0.04-0.17-0.07-0.34-0.08-0.51v-0.25
		c0.01-0.26,0.04-0.51,0.09-0.77c0.49-2.25,0.98-4.52,1.47-6.8c1.63-7.61,3.31-15.48,5.37-22.62v-0.07v-0.07
		c2.05-7.67,5.53-12.6,10.52-15.06c1.57-0.73,3.07-1.47,4.53-2.2c1.45-0.73,2.76-1.37,4.1-1.99h0.08h0.08
		c9.87-4.78,18.24-12.65,25.01-23.47 M239.23,262.13c-0.61,0.02-1.15,0.42-1.34,1c-0.41,1.12-0.84,2.27-1.17,3.12
		c-6.6,16.81-15.68,28.15-27.55,33.91c-2.93,1.36-5.79,2.88-8.72,4.24c-7.48,3.64-13.45,10.6-16.66,22.41
		c-2.79,9.69-4.82,20.14-7.02,30.13c-0.19,0.84-0.3,1.69-0.34,2.55h-0.05c0,0.34,0,0.61,0,0.89c0,0.28,0,0.61,0,0.94h0.06
		c0.06,0.71,0.16,1.42,0.33,2.12c2.19,10,4.23,20,7.02,29.7c3.22,11.81,9.22,18.77,16.66,22.41c2.93,1.36,5.79,2.88,8.72,4.24
		c11.87,5.76,20.95,17.1,27.55,33.91c0.33,0.85,0.76,2.05,1.17,3.13c0.15,0.62,0.68,1.07,1.31,1.12c0.63-0.04,1.15-0.49,1.3-1.1
		c0.39-1.02,0.78-2.05,1.19-3.13c6.6-16.81,15.68-28.14,27.55-33.9c2.93-1.36,5.79-2.84,8.72-4.2c7.48-3.64,13.45-10.53,16.66-22.34
		c2.79-9.69,4.82-19.84,7.02-29.83c0.16-0.7,0.27-1.41,0.33-2.12h0.06c0-0.33,0-0.63,0-0.94c0-0.31,0-0.55,0-0.89h-0.05
		c-0.04-0.86-0.15-1.71-0.34-2.55c-2.19-10-4.23-20.37-7.02-30.06c-3.22-11.81-9.22-18.81-16.66-22.44
		c-2.93-1.37-5.79-2.9-8.72-4.26c-11.87-5.76-20.95-17.12-27.55-33.93c-0.41-1.02-0.8-2.1-1.19-3.14c-0.15-0.61-0.68-1.05-1.3-1.1
		L239.23,262.13z"/>
	<path class="st0" d="M360,444.96c-6.89-14.65-16.11-24.83-27.53-30.34c-1.51-0.7-2.91-1.4-4.31-2.1c-1.4-0.7-2.98-1.47-4.49-2.18
		c-6.51-3.16-10.98-9.3-13.54-18.7c-2.28-7.94-4.1-16.25-5.84-24.29l-1.11-5.12c-0.11-0.44-0.18-0.88-0.22-1.33v-0.37v-0.26v-0.42
		c0.02-0.55,0.09-1.1,0.2-1.64c0.5-2.26,1.02-4.53,1.47-6.8c1.64-7.69,3.35-15.66,5.46-22.99c2.58-9.47,7.05-15.61,13.65-18.82
		c1.41-0.66,2.91-1.4,4.4-2.14s2.81-1.39,4.22-2.05c11.44-5.54,20.69-15.73,27.65-30.36c6.92,14.65,16.16,24.84,27.52,30.34
		c1.47,0.69,2.84,1.37,4.28,2.1c1.44,0.73,2.98,1.49,4.52,2.2c6.51,3.16,10.97,9.31,13.55,18.74c2.15,7.49,3.87,15.51,5.53,23.26
		c0.47,2.18,0.94,4.36,1.41,6.51c0.11,0.55,0.19,1.11,0.22,1.67v0.47v0.23v0.34c-0.03,0.45-0.1,0.89-0.2,1.32
		c-0.42,1.92-0.83,3.81-1.24,5.71c-1.71,7.92-3.48,16.11-5.68,23.78c-2.57,9.42-7.04,15.53-13.65,18.75
		c-1.41,0.66-2.9,1.38-4.39,2.11c-1.5,0.73-2.82,1.38-4.24,2.05C376.16,420.16,366.92,430.34,360,444.96z"/>
	<path class="st1" d="M359.99,287.06c6.78,10.84,15.15,18.7,25.02,23.49h0.08h0.08c1.32,0.61,2.65,1.28,4.1,1.99
		c1.44,0.71,2.97,1.5,4.55,2.22c4.98,2.46,8.42,7.39,10.53,15.1v0.07v0.07c2.05,7.23,3.77,15.15,5.42,22.8
		c0.47,2.19,0.94,4.38,1.42,6.6c0.04,0.24,0.07,0.48,0.08,0.73v0.3c-0.01,0.19-0.04,0.37-0.09,0.55c-0.42,1.9-0.83,3.82-1.25,5.74
		c-1.69,7.81-3.43,15.91-5.58,23.39v0.07v0.07c-2.05,7.62-5.52,12.52-10.53,14.98c-1.54,0.72-3.07,1.44-4.47,2.15
		c-1.39,0.71-2.79,1.37-4.15,2h-0.08h-0.08c-9.87,4.78-18.24,12.65-25.01,23.46c-6.77-10.84-15.14-18.71-25.01-23.49h-0.09h-0.08
		c-1.33-0.61-2.66-1.28-4.1-1.99c-1.43-0.71-2.96-1.47-4.53-2.2c-4.99-2.46-8.43-7.38-10.52-15.06v-0.07v-0.07
		c-2.21-7.68-3.91-15.55-5.73-23.86c-0.37-1.71-0.74-3.42-1.13-5.12c-0.04-0.17-0.07-0.34-0.08-0.51v-0.04v-0.18
		c0-0.26,0.03-0.52,0.08-0.77c0.49-2.25,1.02-4.53,1.47-6.8c1.63-7.61,3.31-15.48,5.37-22.62v-0.07v-0.07
		c2.05-7.67,5.53-12.6,10.52-15.06c1.57-0.73,3.07-1.47,4.53-2.2c1.45-0.73,2.76-1.37,4.1-1.99h0.08h0.09
		c9.86-4.78,18.23-12.65,25-23.47 M360.01,262.16c-0.63,0.05-1.16,0.5-1.31,1.12c-0.41,1.12-0.84,2.27-1.17,3.12
		c-6.6,16.81-15.68,28.15-27.55,33.91c-2.93,1.36-5.79,2.88-8.72,4.24c-7.47,3.64-13.44,10.6-16.66,22.41
		c-2.79,9.69-4.82,20.14-7.02,30.13c-0.18,0.84-0.29,1.69-0.34,2.55l0,0c0,0.34,0,0.61,0,0.89s0,0.61,0,0.94h0.05
		c0.06,0.71,0.16,1.42,0.33,2.12c2.19,10,4.23,20,7.02,29.7c3.23,11.81,9.22,18.77,16.66,22.41c2.93,1.36,5.79,2.88,8.72,4.24
		c11.87,5.76,20.95,17.1,27.55,33.91c0.33,0.85,0.76,2.05,1.17,3.13c0.16,0.62,0.69,1.07,1.32,1.12c0.62-0.05,1.14-0.49,1.29-1.1
		c0.39-1.02,0.79-2.05,1.19-3.13c6.6-16.81,15.68-28.14,27.55-33.9c2.93-1.36,5.79-2.84,8.72-4.2c7.48-3.64,13.45-10.53,16.67-22.34
		c2.78-9.69,4.81-19.84,7.01-29.83c0.17-0.7,0.28-1.41,0.33-2.12h0.06c0-0.33,0-0.63,0-0.94c0-0.31,0-0.55,0-0.89h-0.12
		c-0.04-0.86-0.15-1.71-0.34-2.55c-2.19-10-4.23-20.37-7.01-30.06c-3.23-11.81-9.22-18.81-16.67-22.44
		c-2.93-1.37-5.79-2.9-8.72-4.26c-11.87-5.76-20.95-17.12-27.55-33.93c-0.4-1.02-0.8-2.1-1.19-3.14c-0.15-0.61-0.68-1.05-1.3-1.1
		L360.01,262.16z"/>
	<path class="st0" d="M480.79,444.97c-6.93-14.66-16.16-24.84-27.52-30.35c-1.52-0.7-2.92-1.4-4.32-2.1
		c-1.4-0.7-2.98-1.47-4.49-2.18c-6.51-3.16-10.98-9.3-13.54-18.7c-2.28-7.93-4.1-16.24-5.83-24.27c-0.37-1.71-0.75-3.43-1.12-5.12
		c-0.11-0.44-0.18-0.88-0.22-1.33v-0.37v-0.27v-0.4c0.03-0.55,0.09-1.11,0.2-1.65c0.5-2.26,1.02-4.54,1.47-6.81
		c1.65-7.7,3.35-15.65,5.46-22.98c2.58-9.47,7.05-15.61,13.65-18.82c1.41-0.66,2.91-1.4,4.4-2.14s2.81-1.39,4.22-2.05
		c11.44-5.54,20.69-15.73,27.65-30.36c6.92,14.65,16.16,24.84,27.52,30.34c1.47,0.69,2.84,1.37,4.29,2.1
		c1.45,0.73,2.97,1.49,4.52,2.2c6.5,3.16,10.96,9.31,13.54,18.74c2.15,7.49,3.86,15.49,5.53,23.23c0.47,2.19,0.93,4.38,1.41,6.54
		c0.11,0.55,0.19,1.11,0.22,1.67v0.47c0,0.08,0,0.15,0,0.23v0.34c-0.03,0.45-0.1,0.89-0.2,1.32L536.4,368
		c-1.71,7.9-3.47,16.08-5.67,23.74c-2.57,9.42-7.04,15.53-13.65,18.75c-1.41,0.66-2.9,1.38-4.38,2.11
		c-1.49,0.73-2.82,1.38-4.25,2.05C496.95,420.16,487.71,430.34,480.79,444.97z"/>
	<path class="st1" d="M480.78,287.06c6.78,10.84,15.15,18.7,25.02,23.49h0.08h0.08c1.32,0.61,2.65,1.28,4.1,1.99
		c1.44,0.71,2.98,1.5,4.55,2.22c4.98,2.46,8.43,7.39,10.53,15.1v0.07v0.07c2.05,7.23,3.77,15.15,5.42,22.8
		c0.47,2.2,0.94,4.38,1.42,6.6c0.04,0.24,0.07,0.48,0.08,0.73v0.3c-0.01,0.19-0.04,0.37-0.09,0.55c-0.42,1.9-0.83,3.82-1.24,5.73
		c-1.7,7.82-3.44,15.92-5.59,23.4v0.07v0.07c-2.05,7.62-5.52,12.52-10.53,14.98c-1.54,0.72-3.07,1.44-4.47,2.15
		c-1.39,0.71-2.79,1.37-4.15,2h-0.08h-0.08c-9.87,4.78-18.24,12.65-25.01,23.46c-6.77-10.84-15.14-18.71-25.01-23.49h-0.09h-0.08
		c-1.32-0.61-2.66-1.28-4.1-1.99c-1.43-0.71-2.96-1.47-4.53-2.2c-4.99-2.46-8.43-7.38-10.52-15.06v-0.07v-0.07
		c-2.21-7.68-3.91-15.55-5.73-23.86c-0.37-1.71-0.74-3.42-1.12-5.12c-0.04-0.17-0.07-0.34-0.09-0.51v-0.25
		c0-0.26,0.03-0.52,0.08-0.77c0.5-2.25,1.02-4.53,1.47-6.8c1.63-7.61,3.31-15.48,5.37-22.62v-0.07v-0.07
		c2.05-7.67,5.53-12.6,10.52-15.06c1.57-0.73,3.07-1.47,4.53-2.2c1.45-0.73,2.76-1.37,4.1-1.99h0.08h0.09
		c9.86-4.78,18.24-12.65,25-23.47 M480.8,262.14c-0.63,0.05-1.16,0.5-1.31,1.12c-0.41,1.12-0.84,2.27-1.17,3.12
		c-6.6,16.81-15.68,28.15-27.54,33.91c-2.94,1.36-5.8,2.88-8.73,4.24c-7.47,3.64-13.44,10.6-16.66,22.41
		c-2.79,9.69-4.81,20.14-7.02,30.13c-0.18,0.84-0.29,1.69-0.34,2.55l0,0c0,0.34,0,0.61,0,0.89c0,0.28,0,0.61,0,0.94h0.05
		c0.06,0.71,0.16,1.42,0.33,2.12c2.2,10,4.23,20,7.02,29.7c3.23,11.81,9.22,18.77,16.66,22.41c2.93,1.36,5.79,2.88,8.73,4.24
		c11.86,5.76,20.94,17.1,27.54,33.91c0.33,0.85,0.76,2.05,1.17,3.13c0.16,0.62,0.69,1.07,1.32,1.12c0.62-0.05,1.14-0.49,1.29-1.1
		c0.39-1.02,0.79-2.05,1.19-3.13c6.6-16.81,15.68-28.14,27.55-33.9c2.93-1.36,5.79-2.84,8.72-4.2c7.48-3.64,13.45-10.53,16.67-22.34
		c2.78-9.69,4.81-19.84,7.02-29.83c0.16-0.7,0.27-1.41,0.33-2.12l0,0c0-0.33,0-0.63,0-0.94c0-0.31,0-0.55,0-0.89l0,0
		c-0.04-0.86-0.15-1.71-0.33-2.55c-2.2-10-4.24-20.37-7.02-30.06c-3.23-11.81-9.22-18.81-16.67-22.44c-2.93-1.37-5.79-2.9-8.72-4.26
		c-11.87-5.76-20.95-17.12-27.55-33.93c-0.4-1.02-0.8-2.1-1.19-3.14c-0.15-0.61-0.68-1.05-1.3-1.1L480.8,262.14z"/>
	<ellipse class="st2" cx="239.21" cy="213.07" rx="37.58" ry="54.25"/>
	<ellipse class="st2" cx="360" cy="213.07" rx="37.58" ry="54.25"/>
	<ellipse class="st2" cx="480.79" cy="213.07" rx="37.58" ry="54.25"/>
	<ellipse class="st2" cx="239.21" cy="506.93" rx="37.58" ry="54.25"/>
	<ellipse class="st2" cx="360" cy="506.93" rx="37.58" ry="54.25"/>
	<ellipse class="st2" cx="480.79" cy="506.93" rx="37.58" ry="54.25"/>
</g>
<circle class="st3" cx="360" cy="360" r="346.4"/>
</svg>
