<svg id="bb423029-5f5f-4969-9574-b868a23eeaea" data-name="ba45614f-bd56-4f83-a5cd-f90d25933bde" xmlns="http://www.w3.org/2000/svg" viewBox="0 0 708.81 708.81"><path d="M239.21,445c-7-14.66-16.17-24.84-27.53-30.35-1.51-.69-2.91-1.4-4.31-2.1s-3-1.47-4.49-2.18c-6.51-3.16-11-9.3-13.54-18.7-2.28-7.94-4.09-16.26-5.83-24.32-.37-1.7-.75-3.4-1.12-5.12a10.21,10.21,0,0,1-.21-1.33v-1a10.2,10.2,0,0,1,.21-1.65q.74-3.37,1.46-6.78c1.65-7.7,3.36-15.67,5.47-23,2.58-9.47,7.05-15.61,13.66-18.82,1.41-.66,2.9-1.41,4.4-2.15s2.81-1.39,4.22-2c11.44-5.54,20.68-15.73,27.6-30.36,6.93,14.65,16.17,24.84,27.53,30.34,1.46.68,2.84,1.37,4.28,2.1s3,1.48,4.52,2.2c6.51,3.16,11,9.31,13.55,18.74,2.15,7.49,3.87,15.51,5.53,23.26.47,2.18.93,4.36,1.41,6.51a11.75,11.75,0,0,1,.22,1.67v1a10.06,10.06,0,0,1-.21,1.32q-.63,2.87-1.24,5.71c-1.71,7.92-3.48,16.11-5.68,23.78-2.58,9.43-7,15.53-13.65,18.76-1.42.65-2.9,1.38-4.39,2.1s-2.82,1.39-4.25,2.05C255.37,420.16,246.12,430.34,239.21,445Z" transform="translate(-5.6 -5.6)" fill="#908a88"/><path d="M239.2,287.06c6.77,10.84,15.15,18.71,25,23.5h.16c1.33.61,2.66,1.28,4.1,2s3,1.49,4.55,2.22c5,2.46,8.42,7.39,10.53,15.09V330c2,7.23,3.77,15.14,5.41,22.81.48,2.19.94,4.37,1.43,6.58a5.82,5.82,0,0,1,.08.73v.3a2.63,2.63,0,0,1-.09.55c-.42,1.9-.83,3.81-1.25,5.72-1.69,7.83-3.43,15.92-5.58,23.41v.14c-2.05,7.61-5.52,12.51-10.53,15-1.54.72-3,1.45-4.47,2.15s-2.78,1.38-4.15,2h-.16c-9.87,4.78-18.24,12.65-25,23.46-6.77-10.83-15.14-18.71-25-23.49h-.16c-1.33-.62-2.68-1.28-4.1-2s-3-1.47-4.53-2.2c-5-2.46-8.43-7.38-10.52-15.05V390c-2.21-7.68-3.92-15.54-5.72-23.87-.37-1.7-.74-3.41-1.13-5.12a3,3,0,0,1-.08-.51v-.25a5,5,0,0,1,.09-.77q.75-3.37,1.48-6.8c1.63-7.61,3.31-15.47,5.36-22.62v-.15c2.05-7.67,5.54-12.59,10.52-15.05,1.57-.73,3.08-1.48,4.53-2.2s2.75-1.38,4.1-2h.16c9.87-4.78,18.24-12.65,25-23.47m0-25a1.46,1.46,0,0,0-1.34,1c-.41,1.12-.84,2.27-1.17,3.12-6.59,16.81-15.68,28.16-27.55,33.91-2.93,1.37-5.79,2.88-8.71,4.24C193,308,187,315,183.79,326.81c-2.78,9.69-4.82,20.14-7,30.13a14.61,14.61,0,0,0-.34,2.55h-.05v1.84h.06a12.8,12.8,0,0,0,.33,2.12c2.19,10,4.23,20,7,29.7C187,405,193,411.92,200.46,415.56c2.92,1.36,5.78,2.87,8.71,4.24,11.87,5.75,21,17.1,27.55,33.91.33.85.76,2,1.17,3.13A1.47,1.47,0,0,0,239.2,458a1.45,1.45,0,0,0,1.3-1.1l1.19-3.13c6.59-16.81,15.68-28.15,27.55-33.9,2.93-1.37,5.79-2.84,8.71-4.2,7.48-3.64,13.45-10.53,16.67-22.34,2.78-9.69,4.82-19.84,7-29.83a12.8,12.8,0,0,0,.33-2.12H302V359.5h0a14.73,14.73,0,0,0-.34-2.55c-2.19-10-4.23-20.37-7-30.06-3.22-11.8-9.22-18.81-16.67-22.44-2.92-1.37-5.78-2.89-8.71-4.26-11.87-5.75-21-17.12-27.55-33.93-.41-1-.8-2.1-1.19-3.14a1.45,1.45,0,0,0-1.3-1.1Z" transform="translate(-5.6 -5.6)" fill="#fff"/><path d="M360,445c-6.89-14.65-16.11-24.83-27.53-30.34-1.51-.69-2.91-1.4-4.31-2.1s-3-1.47-4.49-2.18c-6.51-3.16-11-9.3-13.54-18.7-2.28-7.94-4.09-16.25-5.83-24.29l-1.11-5.12a8.58,8.58,0,0,1-.22-1.33v-1a10.08,10.08,0,0,1,.21-1.64c.5-2.26,1-4.52,1.47-6.8,1.64-7.69,3.35-15.66,5.46-23,2.58-9.47,7.05-15.61,13.66-18.82,1.41-.66,2.9-1.41,4.4-2.14s2.81-1.4,4.22-2c11.44-5.54,20.69-15.73,27.65-30.36,6.92,14.65,16.16,24.84,27.52,30.34,1.48.68,2.84,1.37,4.28,2.1s3,1.48,4.52,2.2c6.51,3.16,11,9.31,13.55,18.74,2.15,7.49,3.87,15.51,5.53,23.26.47,2.18.94,4.36,1.41,6.51a11.75,11.75,0,0,1,.22,1.67v1a7.55,7.55,0,0,1-.21,1.32q-.63,2.86-1.24,5.71c-1.71,7.92-3.48,16.11-5.68,23.78-2.57,9.43-7,15.53-13.65,18.76-1.42.65-2.9,1.38-4.4,2.11s-2.81,1.38-4.24,2C376.16,420.16,366.92,430.34,360,445Z" transform="translate(-5.6 -5.6)" fill="#908a88"/><path d="M360,287.06c6.78,10.84,15.15,18.71,25,23.5h.16c1.33.61,2.66,1.28,4.1,2s3,1.49,4.55,2.22c5,2.46,8.42,7.39,10.53,15.09V330c2,7.23,3.77,15.14,5.41,22.8.48,2.19.95,4.38,1.43,6.59a5.82,5.82,0,0,1,.08.73v.3a2.63,2.63,0,0,1-.09.55c-.42,1.9-.83,3.82-1.25,5.73-1.69,7.82-3.43,15.91-5.58,23.4v.14c-2.05,7.62-5.52,12.51-10.53,15-1.54.72-3.07,1.45-4.47,2.15s-2.78,1.38-4.15,2H385c-9.87,4.78-18.24,12.65-25,23.46-6.77-10.83-15.14-18.71-25-23.49h-.17c-1.33-.62-2.67-1.28-4.1-2s-3-1.47-4.53-2.2c-5-2.46-8.43-7.38-10.52-15.05V390c-2.21-7.68-3.91-15.54-5.72-23.86-.37-1.71-.74-3.42-1.13-5.12a3,3,0,0,1-.08-.51v-.23a5,5,0,0,1,.08-.77c.49-2.25,1-4.52,1.48-6.8,1.63-7.61,3.31-15.47,5.36-22.62v-.15c2.05-7.67,5.54-12.59,10.52-15,1.57-.73,3.08-1.48,4.53-2.2s2.75-1.37,4.1-2H335c9.86-4.78,18.23-12.65,25-23.47m0-25a1.47,1.47,0,0,0-1.31,1.11c-.41,1.12-.84,2.28-1.17,3.13-6.59,16.8-15.68,28.15-27.55,33.91-2.93,1.36-5.78,2.87-8.71,4.24-7.47,3.63-13.44,10.6-16.67,22.41-2.78,9.68-4.82,20.13-7,30.13a15.63,15.63,0,0,0-.34,2.55h0v1.83h.05a15.31,15.31,0,0,0,.33,2.12c2.19,10,4.23,20,7,29.7,3.23,11.81,9.22,18.77,16.67,22.41,2.93,1.36,5.78,2.88,8.71,4.24,11.87,5.76,21,17.1,27.55,33.91.33.85.76,2,1.17,3.13a1.49,1.49,0,0,0,1.32,1.12,1.45,1.45,0,0,0,1.29-1.1c.39-1,.79-2,1.19-3.13,6.6-16.81,15.68-28.14,27.55-33.9,2.93-1.36,5.79-2.84,8.72-4.2,7.47-3.63,13.44-10.53,16.67-22.34,2.77-9.68,4.81-19.83,7-29.83a12.8,12.8,0,0,0,.33-2.12h.06v-1.83h-.12a14.61,14.61,0,0,0-.34-2.55c-2.19-10-4.23-20.37-7-30.06-3.23-11.81-9.22-18.82-16.68-22.44-2.93-1.37-5.78-2.9-8.71-4.26-11.87-5.76-21-17.13-27.55-33.93-.4-1-.8-2.1-1.19-3.15a1.43,1.43,0,0,0-1.3-1.09Z" transform="translate(-5.6 -5.6)" fill="#fff"/><path d="M480.79,445c-6.93-14.66-16.16-24.84-27.52-30.35-1.52-.69-2.92-1.4-4.32-2.1s-3-1.47-4.49-2.18c-6.51-3.16-11-9.3-13.54-18.7-2.28-7.93-4.09-16.24-5.82-24.27-.37-1.71-.75-3.43-1.12-5.12a8.58,8.58,0,0,1-.22-1.33v-1a11.64,11.64,0,0,1,.21-1.65c.5-2.26,1-4.53,1.47-6.81,1.65-7.7,3.35-15.65,5.46-23,2.58-9.47,7.05-15.61,13.66-18.82,1.41-.66,2.9-1.41,4.4-2.14s2.81-1.4,4.22-2.05c11.44-5.54,20.69-15.73,27.65-30.36,6.92,14.65,16.16,24.84,27.52,30.34,1.48.68,2.84,1.37,4.29,2.1s3,1.48,4.52,2.2c6.5,3.16,11,9.31,13.54,18.74,2.15,7.49,3.86,15.49,5.53,23.23.47,2.19.93,4.38,1.41,6.54a11.75,11.75,0,0,1,.22,1.67v.47a.89.89,0,0,0,0,.23v.34a7.55,7.55,0,0,1-.21,1.32L536.4,368c-1.71,7.9-3.47,16.08-5.67,23.74-2.57,9.43-7,15.53-13.65,18.76-1.42.65-2.9,1.38-4.39,2.11s-2.81,1.38-4.25,2C497,420.16,487.71,430.34,480.79,445Z" transform="translate(-5.6 -5.6)" fill="#908a88"/><path d="M480.78,287.06c6.78,10.84,15.15,18.71,25,23.5H506c1.33.61,2.66,1.28,4.1,2s3,1.49,4.55,2.22c5,2.46,8.43,7.39,10.53,15.09V330c2,7.23,3.77,15.14,5.41,22.8.48,2.2,1,4.38,1.43,6.59a5.82,5.82,0,0,1,.08.73v.3a2.63,2.63,0,0,1-.09.55c-.42,1.9-.83,3.82-1.24,5.72-1.7,7.83-3.44,15.92-5.59,23.41v.14c-2,7.62-5.52,12.51-10.53,15-1.54.72-3.07,1.45-4.47,2.15s-2.78,1.38-4.15,2h-.16c-9.87,4.78-18.24,12.65-25,23.46-6.77-10.83-15.14-18.71-25-23.49h-.17c-1.32-.62-2.67-1.28-4.1-2s-3-1.47-4.53-2.2c-5-2.46-8.43-7.38-10.52-15.05V390c-2.21-7.68-3.91-15.54-5.72-23.86q-.56-2.57-1.12-5.12a4.54,4.54,0,0,1-.09-.51v-.25a5,5,0,0,1,.08-.77c.51-2.25,1-4.52,1.48-6.8,1.63-7.61,3.31-15.47,5.36-22.62v-.15c2-7.67,5.54-12.59,10.52-15.05,1.57-.73,3.08-1.48,4.53-2.2s2.75-1.38,4.1-2h.17c9.86-4.78,18.24-12.65,25-23.47m0-25a1.47,1.47,0,0,0-1.31,1.11c-.41,1.12-.84,2.28-1.17,3.13-6.59,16.8-15.68,28.15-27.54,33.91-2.94,1.36-5.79,2.87-8.72,4.24-7.47,3.63-13.44,10.6-16.67,22.4-2.78,9.69-4.81,20.14-7,30.14a15.63,15.63,0,0,0-.34,2.55h0v1.83h0a15.31,15.31,0,0,0,.33,2.12c2.2,10,4.23,20,7,29.7,3.23,11.81,9.22,18.77,16.67,22.41,2.93,1.36,5.78,2.88,8.72,4.24,11.86,5.75,20.95,17.1,27.54,33.91.33.85.76,2.05,1.17,3.13a1.49,1.49,0,0,0,1.32,1.12,1.45,1.45,0,0,0,1.29-1.1c.39-1,.79-2.05,1.19-3.13C489.93,437,499,425.71,510.88,420c2.93-1.36,5.79-2.84,8.72-4.2,7.47-3.64,13.44-10.53,16.67-22.34,2.77-9.69,4.81-19.83,7-29.83a15.31,15.31,0,0,0,.33-2.12h0v-1.83h0a15.61,15.61,0,0,0-.33-2.55c-2.2-10-4.24-20.37-7-30.06-3.23-11.81-9.22-18.82-16.67-22.44-2.93-1.38-5.79-2.9-8.72-4.26-11.87-5.76-20.95-17.13-27.55-33.93-.4-1-.8-2.1-1.19-3.15a1.43,1.43,0,0,0-1.3-1.09Z" transform="translate(-5.6 -5.6)" fill="#fff"/><ellipse cx="233.61" cy="207.47" rx="37.58" ry="54.25" fill="#908a88" stroke="#fff" stroke-miterlimit="10" stroke-width="11.24"/><ellipse cx="354.4" cy="207.47" rx="37.58" ry="54.25" fill="#908a88" stroke="#fff" stroke-miterlimit="10" stroke-width="11.24"/><ellipse cx="475.19" cy="207.47" rx="37.58" ry="54.25" fill="#908a88" stroke="#fff" stroke-miterlimit="10" stroke-width="11.24"/><ellipse cx="233.61" cy="501.34" rx="37.58" ry="54.25" fill="#908a88" stroke="#fff" stroke-miterlimit="10" stroke-width="11.24"/><ellipse cx="354.4" cy="501.34" rx="37.58" ry="54.25" fill="#908a88" stroke="#fff" stroke-miterlimit="10" stroke-width="11.24"/><ellipse cx="475.19" cy="501.34" rx="37.58" ry="54.25" fill="#908a88" stroke="#fff" stroke-miterlimit="10" stroke-width="11.24"/><circle cx="354.4" cy="354.4" r="346.4" fill="none" stroke="#908a88" stroke-miterlimit="10" stroke-width="16"/></svg>